<?xml version="1.0" standalone="no"?>
<!DOCTYPE svg PUBLIC "-//W3C//DTD SVG 20010904//EN"
 "http://www.w3.org/TR/2001/REC-SVG-20010904/DTD/svg10.dtd">
<svg version="1.0" xmlns="http://www.w3.org/2000/svg"
 width="1006.000000pt" height="1006.000000pt" viewBox="0 0 1006.000000 1006.000000"
 preserveAspectRatio="xMidYMid meet">
<metadata>
Created by potrace 1.14, written by Peter Selinger 2001-2017
</metadata>
<g transform="translate(0.000000,1006.000000) scale(0.100000,-0.100000)"
fill="#000000" stroke="none">
<path d="M4885 9966 c-223 -44 -392 -174 -490 -377 -101 -211 -82 -472 47
-666 135 -200 370 -316 609 -299 456 31 745 474 595 908 -69 199 -258 370
-465 423 -88 23 -213 27 -296 11z"/>
<path d="M3210 9413 c-11 -5 -2141 -1605 -2173 -1632 -7 -7 66 -113 81 -118 4
-2 288 209 632 468 344 260 840 634 1103 832 l479 360 54 -54 54 -54 -960
-724 c-592 -446 -957 -727 -953 -735 3 -6 22 -31 41 -56 20 -25 37 -46 38 -48
1 -2 438 325 971 727 l968 730 38 -37 c20 -20 36 -39 35 -43 -2 -4 -336 -258
-743 -564 -407 -307 -746 -563 -753 -569 -10 -10 -4 -23 27 -65 22 -30 42 -56
45 -58 2 -2 348 255 768 571 419 317 765 576 768 576 3 0 275 -270 605 -600
l600 -600 -870 -870 -870 -870 855 -855 855 -855 -855 -855 -855 -855 858
-858 857 -857 -410 -410 -410 -410 92 -3 92 -3 361 360 360 361 360 -360 360
-360 90 0 90 0 -413 412 -412 413 857 857 858 858 -858 858 -857 857 855 855
855 855 -867 867 -868 868 615 615 615 615 735 -553 735 -554 44 60 c43 57 44
60 25 74 -10 7 -337 253 -726 546 l-707 532 44 44 43 44 439 -330 c241 -182
674 -509 963 -726 289 -218 528 -397 531 -397 13 0 91 112 83 120 -5 4 -432
326 -949 715 -517 389 -944 712 -950 716 -6 6 6 24 30 49 l40 39 1140 -859
c627 -473 1143 -860 1147 -860 14 0 91 111 82 119 -10 9 -1978 1492 -2142
1614 l-103 77 -112 0 -112 0 -782 -782 -783 -783 -783 783 -782 782 -100 -1
c-55 0 -107 -3 -115 -6z m2580 -2625 c437 -436 797 -797 799 -802 2 -5 -356
-368 -795 -807 l-799 -799 -802 802 -803 803 797 797 c439 439 800 798 802
798 3 0 363 -357 801 -792z m5 -3428 l800 -800 -801 -800 -800 -801 -802 803
-802 803 798 798 c438 438 799 797 802 797 3 0 365 -360 805 -800z"/>
<path d="M4430 5960 l0 -832 368 5 c421 5 451 9 601 84 252 127 380 372 381
729 1 240 -43 405 -145 549 -102 143 -232 224 -424 266 -83 18 -142 22 -438
26 l-343 5 0 -832z m782 610 c187 -64 297 -204 329 -419 15 -105 6 -394 -14
-467 -38 -135 -125 -252 -227 -304 -112 -57 -146 -63 -413 -69 l-247 -6 0 650
0 650 252 -6 c229 -5 259 -8 320 -29z"/>
<path d="M4367 3394 c-4 -4 -7 -378 -7 -831 l0 -823 105 0 105 0 0 405 0 405
420 0 420 0 0 -405 0 -405 105 0 105 0 -2 828 -3 827 -100 0 -100 0 -3 -332
-2 -333 -420 0 -420 0 -2 333 -3 332 -95 3 c-53 1 -99 0 -103 -4z"/>
</g>
</svg>
